<svg width="48" height="38" viewBox="0 0 48 38" fill="none" xmlns="http://www.w3.org/2000/svg">
<rect x="0.5" y="0.5" width="47" height="37" rx="0.5" fill="white" stroke="#E1E1E1"/>
<path d="M13.3952 13.9339C12.985 14.4405 12.3286 14.8402 11.6723 14.7831C11.5903 14.098 11.9116 13.3701 12.2876 12.9206C12.6978 12.3996 13.4157 12.0285 13.9968 12C14.0652 12.7136 13.7985 13.4129 13.3952 13.9339ZM13.99 14.9186C13.0397 14.8616 12.2261 15.4824 11.7749 15.4824C11.3168 15.4824 10.6263 14.9472 9.87425 14.9615C8.8966 14.9757 7.98731 15.5538 7.48823 16.4743C6.46273 18.3154 7.2216 21.0414 8.21293 22.54C8.69833 23.2821 9.27945 24.0956 10.0452 24.0671C10.7699 24.0385 11.057 23.5747 11.9321 23.5747C12.814 23.5747 13.067 24.0671 13.8327 24.0528C14.6258 24.0385 15.1249 23.3107 15.6103 22.5685C16.164 21.7265 16.3896 20.9058 16.4033 20.863C16.3896 20.8487 14.8719 20.2422 14.8582 18.4153C14.8445 16.8882 16.0546 16.1603 16.1093 16.1175C15.4257 15.0614 14.3591 14.9472 13.99 14.9186ZM19.4798 12.8492V23.9743H21.1343V20.1708H23.4246C25.5167 20.1708 26.9866 18.6722 26.9866 16.5029C26.9866 14.3335 25.544 12.8492 23.4793 12.8492H19.4798V12.8492ZM21.1343 14.3049H23.0418C24.4775 14.3049 25.2979 15.1042 25.2979 16.51C25.2979 17.9158 24.4775 18.7222 23.0349 18.7222H21.1343V14.3049V14.3049ZM30.0084 24.0599C31.0476 24.0599 32.0115 23.5105 32.4491 22.6399H32.4833V23.9743H34.0147V18.4367C34.0147 16.8311 32.7841 15.7964 30.8903 15.7964C29.1333 15.7964 27.8343 16.8454 27.7865 18.2869H29.2769C29.3999 17.6018 30.0084 17.1522 30.8425 17.1522C31.8543 17.1522 32.4218 17.6446 32.4218 18.5509V19.1646L30.3571 19.2931C28.4359 19.4144 27.3968 20.235 27.3968 21.6622C27.3968 23.1037 28.4701 24.0599 30.0084 24.0599ZM30.4528 22.7398C29.5708 22.7398 29.0102 22.2973 29.0102 21.6194C29.0102 20.9201 29.5503 20.5133 30.5827 20.4491L32.4218 20.3278V20.9558C32.4218 21.9976 31.574 22.7398 30.4528 22.7398ZM36.0589 27C37.6724 27 38.4312 26.3578 39.0944 24.4096L42 15.9034H40.3182L38.3697 22.4757H38.3355L36.3871 15.9034H34.6574L37.4604 24.0029L37.31 24.4952C37.057 25.3302 36.6468 25.6513 35.9153 25.6513C35.7854 25.6513 35.5325 25.637 35.4299 25.6227V26.9572C35.5256 26.9857 35.9358 27 36.0589 27Z" fill="#888888"/>
</svg>
