<svg width="48" height="38" viewBox="0 0 48 38" fill="none" xmlns="http://www.w3.org/2000/svg">
<rect x="0.5" y="0.5" width="47" height="37" rx="0.5" fill="white" stroke="#E1E1E1"/>
<path d="M23.1338 19.2081V22.9329H21.9521V13.7343H25.0861C25.4602 13.7264 25.8321 13.7928 26.1804 13.9295C26.5288 14.0662 26.8465 14.2705 27.1155 14.5306C27.3871 14.7749 27.6033 15.0746 27.7496 15.4095C27.8958 15.7443 27.9686 16.1066 27.9632 16.4719C27.971 16.8392 27.8992 17.2038 27.7529 17.5408C27.6066 17.8778 27.3892 18.1791 27.1155 18.4242C26.5675 18.9468 25.891 19.2078 25.0861 19.2073H23.1338V19.2081ZM23.1338 14.8667V18.0778H25.1155C25.3327 18.0842 25.5489 18.0452 25.7502 17.9633C25.9516 17.8815 26.1336 17.7584 26.2847 17.6022C26.4349 17.4561 26.5544 17.2813 26.636 17.0883C26.7175 16.8952 26.7595 16.6877 26.7595 16.4781C26.7595 16.2685 26.7175 16.0611 26.636 15.868C26.5544 15.6749 26.4349 15.5002 26.2847 15.3541C26.1355 15.1945 25.9541 15.0685 25.7525 14.9844C25.551 14.9002 25.3338 14.8599 25.1155 14.866H23.1338V14.8667Z" fill="#5F6368"/>
<path d="M30.6862 16.4337C31.5596 16.4337 32.249 16.6671 32.7545 17.1339C33.2599 17.6007 33.5124 18.2407 33.5119 19.0539V22.9328H32.3816V22.0594H32.3303C31.841 22.7787 31.1902 23.1384 30.378 23.1384C29.6846 23.1384 29.1046 22.9328 28.6378 22.5218C28.4138 22.3332 28.2347 22.0969 28.1135 21.8303C27.9924 21.5637 27.9323 21.2734 27.9376 20.9805C27.9376 20.3293 28.1837 19.8114 28.6759 19.4268C29.1682 19.0422 29.8253 18.8494 30.6473 18.8484C31.349 18.8484 31.9268 18.9769 32.3809 19.2337V18.9636C32.3823 18.764 32.3391 18.5666 32.2547 18.3857C32.1703 18.2048 32.0467 18.045 31.8928 17.9178C31.5804 17.6358 31.1731 17.482 30.7523 17.4869C30.0922 17.4869 29.5699 17.7653 29.1853 18.3222L28.1446 17.6668C28.717 16.8447 29.5643 16.4337 30.6862 16.4337ZM29.1574 21.0062C29.1566 21.1566 29.1918 21.305 29.2599 21.4391C29.3281 21.5731 29.4273 21.6889 29.5493 21.7769C29.8107 21.9824 30.1351 22.0914 30.4675 22.0851C30.9661 22.0843 31.4441 21.8858 31.7967 21.5332C32.1881 21.1648 32.3838 20.7325 32.3838 20.2363C32.0154 19.9427 31.5016 19.7959 30.8426 19.7959C30.3626 19.7959 29.9623 19.9117 29.6418 20.1431C29.3181 20.378 29.1574 20.6635 29.1574 21.0062V21.0062Z" fill="#5F6368"/>
<path d="M39.9999 16.6393L36.0542 25.7072H34.8344L36.2986 22.5344L33.7041 16.6393H34.9885L36.8638 21.1604H36.8894L38.7133 16.6393H39.9999Z" fill="#5F6368"/>
<path d="M18.3587 18.4051C18.3592 18.045 18.3287 17.6855 18.2677 17.3306H13.2842V19.3658H16.1385C16.0801 19.6909 15.9565 20.0007 15.7751 20.2767C15.5937 20.5527 15.3583 20.7891 15.0831 20.9717V22.2928H16.7866C17.784 21.3732 18.3587 20.0132 18.3587 18.4051Z" fill="#4285F4"/>
<path d="M13.2842 23.5692C14.7103 23.5692 15.9111 23.1009 16.7867 22.2936L15.0832 20.9725C14.609 21.294 13.9984 21.4774 13.2842 21.4774C11.9059 21.4774 10.736 20.5483 10.3176 19.2961H8.56274V20.6576C9.00258 21.5328 9.67701 22.2686 10.5108 22.7827C11.3445 23.2969 12.3047 23.5692 13.2842 23.5692V23.5692Z" fill="#34A853"/>
<path d="M10.3176 19.2962C10.0964 18.6401 10.0964 17.9296 10.3176 17.2735V15.912H8.5627C8.1927 16.6483 8 17.4608 8 18.2848C8 19.1089 8.1927 19.9214 8.5627 20.6577L10.3176 19.2962Z" fill="#FBBC04"/>
<path d="M13.2842 15.0921C14.0379 15.0798 14.766 15.3645 15.3114 15.8848L16.8197 14.3765C15.8633 13.4782 14.5963 12.985 13.2842 13.0003C12.3047 13.0004 11.3445 13.2727 10.5108 13.7868C9.67701 14.301 9.00258 15.0367 8.56274 15.9119L10.3176 17.2734C10.736 16.0213 11.9059 15.0921 13.2842 15.0921Z" fill="#EA4335"/>
</svg>
