<svg width="48" height="38" viewBox="0 0 48 38" fill="none" xmlns="http://www.w3.org/2000/svg">
<rect x="0.5" y="0.5" width="47" height="37" rx="0.5" fill="white" stroke="#E1E1E1"/>
<path d="M36.5283 16.2833H32.4712V8.99207H36.5283V16.2833Z" fill="#FF5F00"/>
<path d="M32.7311 12.6371C32.7311 11.158 33.4236 9.84051 34.5021 8.99145C33.7134 8.37058 32.7182 8 31.6365 8C29.0758 8 27 10.0761 27 12.6371C27 15.1981 29.0758 17.2742 31.6365 17.2742C32.7182 17.2742 33.7134 16.9036 34.5021 16.2827C33.4236 15.4337 32.7311 14.1162 32.7311 12.6371Z" fill="#EB001B"/>
<path d="M41.9999 12.6371C41.9999 15.1981 39.9241 17.2742 37.3634 17.2742C36.2818 17.2742 35.2865 16.9036 34.4976 16.2827C35.5763 15.4337 36.2688 14.1162 36.2688 12.6371C36.2688 11.158 35.5763 9.84051 34.4976 8.99145C35.2865 8.37058 36.2818 8 37.3634 8C39.9241 8 41.9999 10.0761 41.9999 12.6371Z" fill="#F79E1B"/>
<path d="M30.4889 12.6665C30.4889 12.4639 30.6216 12.2975 30.8385 12.2975C31.0457 12.2975 31.1856 12.4567 31.1856 12.6665C31.1856 12.8762 31.0457 13.0354 30.8385 13.0354C30.6216 13.0354 30.4889 12.869 30.4889 12.6665ZM31.4218 12.6665V12.0903H31.1713V12.2302C31.0918 12.1264 30.9712 12.0613 30.8073 12.0613C30.4842 12.0613 30.2308 12.3146 30.2308 12.6665C30.2308 13.0186 30.4842 13.2716 30.8073 13.2716C30.9712 13.2716 31.0918 13.2065 31.1713 13.1027V13.2426H31.4218V12.6665ZM39.8891 12.6665C39.8891 12.4639 40.0218 12.2975 40.2387 12.2975C40.4462 12.2975 40.5858 12.4567 40.5858 12.6665C40.5858 12.8762 40.4462 13.0354 40.2387 13.0354C40.0218 13.0354 39.8891 12.869 39.8891 12.6665ZM40.8223 12.6665V11.6275H40.5715V12.2302C40.492 12.1264 40.3714 12.0613 40.2075 12.0613C39.8844 12.0613 39.631 12.3146 39.631 12.6665C39.631 13.0186 39.8844 13.2716 40.2075 13.2716C40.3714 13.2716 40.492 13.2065 40.5715 13.1027V13.2426H40.8223V12.6665ZM34.5321 12.2856C34.6935 12.2856 34.7972 12.3869 34.8237 12.5652H34.2258C34.2525 12.3988 34.3535 12.2856 34.5321 12.2856ZM34.537 12.0613C34.1993 12.0613 33.963 12.3072 33.963 12.6665C33.963 13.0329 34.2089 13.2716 34.5539 13.2716C34.7274 13.2716 34.8864 13.2283 35.0263 13.1102L34.9035 12.9245C34.8069 13.0015 34.6838 13.0451 34.5682 13.0451C34.4068 13.0451 34.2597 12.9703 34.2235 12.7628H35.0793C35.0817 12.7316 35.0842 12.7001 35.0842 12.6665C35.0817 12.3072 34.8599 12.0613 34.537 12.0613ZM37.5625 12.6665C37.5625 12.4639 37.6953 12.2975 37.9122 12.2975C38.1194 12.2975 38.2593 12.4567 38.2593 12.6665C38.2593 12.8762 38.1194 13.0354 37.9122 13.0354C37.6953 13.0354 37.5625 12.869 37.5625 12.6665ZM38.4955 12.6665V12.0903H38.2449V12.2302C38.1652 12.1264 38.0449 12.0613 37.881 12.0613C37.5578 12.0613 37.3045 12.3146 37.3045 12.6665C37.3045 13.0186 37.5578 13.2716 37.881 13.2716C38.0449 13.2716 38.1652 13.2065 38.2449 13.1027V13.2426H38.4955V12.6665ZM36.1475 12.6665C36.1475 13.0161 36.3908 13.2716 36.7623 13.2716C36.9358 13.2716 37.0515 13.233 37.1767 13.1342L37.0564 12.9316C36.9623 12.9992 36.8635 13.0354 36.7548 13.0354C36.5548 13.0329 36.4077 12.8883 36.4077 12.6665C36.4077 12.4446 36.5548 12.3 36.7548 12.2975C36.8635 12.2975 36.9623 12.3337 37.0564 12.4013L37.1767 12.1987C37.0515 12.0999 36.9358 12.0613 36.7623 12.0613C36.3908 12.0613 36.1475 12.3168 36.1475 12.6665ZM39.378 12.0613C39.2334 12.0613 39.1393 12.1289 39.0742 12.2302V12.0903H38.8258V13.2426H39.0767V12.5966C39.0767 12.406 39.1586 12.3 39.3225 12.3C39.3733 12.3 39.4263 12.3072 39.4793 12.329L39.5565 12.0928C39.5011 12.071 39.4288 12.0613 39.378 12.0613ZM32.6611 12.1819C32.5405 12.1024 32.3744 12.0613 32.1912 12.0613C31.8992 12.0613 31.7113 12.2012 31.7113 12.4302C31.7113 12.6182 31.8512 12.7341 32.1089 12.7702L32.2273 12.787C32.3648 12.8064 32.4296 12.8425 32.4296 12.9076C32.4296 12.9968 32.338 13.0475 32.1669 13.0475C31.9933 13.0475 31.868 12.9921 31.7836 12.9269L31.6655 13.122C31.8029 13.2233 31.9765 13.2716 32.1644 13.2716C32.4972 13.2716 32.6901 13.1149 32.6901 12.8955C32.6901 12.6929 32.5383 12.587 32.2875 12.5508L32.1694 12.5337C32.0609 12.5194 31.974 12.4978 31.974 12.4206C31.974 12.3361 32.056 12.2856 32.1934 12.2856C32.3405 12.2856 32.4829 12.3411 32.5527 12.3844L32.6611 12.1819ZM35.8941 12.0613C35.7495 12.0613 35.6554 12.1289 35.5906 12.2302V12.0903H35.3422V13.2426H35.5928V12.5966C35.5928 12.406 35.6748 12.3 35.8387 12.3C35.8894 12.3 35.9424 12.3072 35.9954 12.329L36.0727 12.0928C36.0172 12.071 35.9449 12.0613 35.8941 12.0613ZM33.7558 12.0903H33.346V11.7406H33.0927V12.0903H32.859V12.3193H33.0927V12.845C33.0927 13.1124 33.1965 13.2716 33.4928 13.2716C33.6016 13.2716 33.7268 13.2379 33.8063 13.1825L33.734 12.9678C33.6592 13.0111 33.5773 13.0329 33.5121 13.0329C33.3869 13.0329 33.346 12.9556 33.346 12.84V12.3193H33.7558V12.0903ZM30.0093 13.2426V12.5194C30.0093 12.247 29.8357 12.0638 29.5559 12.0613C29.4088 12.0588 29.257 12.1046 29.1508 12.2663C29.0713 12.1386 28.946 12.0613 28.77 12.0613C28.6469 12.0613 28.5266 12.0974 28.4325 12.2324V12.0903H28.1816V13.2426H28.4347V12.6038C28.4347 12.4037 28.5456 12.2975 28.717 12.2975C28.8834 12.2975 28.9675 12.406 28.9675 12.6013V13.2426H29.2209V12.6038C29.2209 12.4037 29.3365 12.2975 29.5029 12.2975C29.674 12.2975 29.7559 12.406 29.7559 12.6013V13.2426H30.0093Z" fill="white"/>
<path fill-rule="evenodd" clip-rule="evenodd" d="M33.5305 23H29.355C29.5795 24.3286 30.9264 25.5714 32.408 25.5714H35.7305C35.7754 25.4429 35.7754 25.2714 35.7754 25.1429C35.7754 23.9429 34.7876 23 33.5305 23Z" fill="url(#paint0_linear)"/>
<path fill-rule="evenodd" clip-rule="evenodd" d="M29.7144 25.7856V28.9999H31.7348V27.2856H33.5307C34.5184 27.2856 35.3715 26.6428 35.6409 25.7856H29.7144Z" fill="#4DB45F"/>
<path fill-rule="evenodd" clip-rule="evenodd" d="M22.5305 23V29H24.3264C24.3264 29 24.7754 29 24.9999 28.5714C26.2121 26.2571 26.5713 25.5714 26.5713 25.5714H26.7958V29H28.8162V23H27.0203C27.0203 23 26.5713 23.0429 26.3468 23.4286C25.3142 25.4 24.7754 26.4286 24.7754 26.4286H24.5509V23H22.5305Z" fill="#4DB45F"/>
<path fill-rule="evenodd" clip-rule="evenodd" d="M14 29V23H16.0204C16.0204 23 16.6041 23 16.9184 23.8571C17.7265 26.1286 17.8163 26.4286 17.8163 26.4286C17.8163 26.4286 17.9959 25.8714 18.7143 23.8571C19.0286 23 19.6122 23 19.6122 23H21.6327V29H19.6122V25.7857H19.3878L18.2653 29H17.3673L16.2449 25.7857H16.0204V29H14Z" fill="#4DB45F"/>
<path d="M12.3697 15.4232H10.9825L11.8495 10.0952H13.2368L12.3697 15.4232ZM9.81553 10.0952L8.49307 13.7599L8.33658 12.9707L8.33672 12.971L7.86996 10.5749C7.86996 10.5749 7.81352 10.0952 7.21194 10.0952H5.02565L5 10.1854C5 10.1854 5.66857 10.3245 6.45101 10.7944L7.65618 15.4234H9.10149L11.3084 10.0952H9.81553V10.0952ZM20.7263 15.4232H22L20.8895 10.0951H19.7744C19.2594 10.0951 19.134 10.4921 19.134 10.4921L17.0652 15.4232H18.5112L18.8004 14.6318H20.5638L20.7263 15.4232ZM19.1999 13.5385L19.9287 11.5447L20.3388 13.5385H19.1999ZM17.1736 11.3765L17.3716 10.2323C17.3716 10.2323 16.7608 10 16.124 10C15.4356 10 13.8009 10.3009 13.8009 11.7638C13.8009 13.1403 15.7195 13.1574 15.7195 13.8804C15.7195 14.6035 13.9985 14.4739 13.4306 14.018L13.2244 15.2143C13.2244 15.2143 13.8438 15.5152 14.7901 15.5152C15.7367 15.5152 17.1648 15.025 17.1648 13.691C17.1648 12.3057 15.2289 12.1767 15.2289 11.5744C15.2291 10.972 16.58 11.0494 17.1736 11.3765V11.3765Z" fill="#2566AF"/>
<path d="M8.33672 12.9709L7.86996 10.5748C7.86996 10.5748 7.81352 10.0951 7.21194 10.0951H5.02565L5 10.1853C5 10.1853 6.05081 10.4031 7.05873 11.219C8.02246 11.9989 8.33672 12.9709 8.33672 12.9709Z" fill="#E6A540"/>
<defs>
<linearGradient id="paint0_linear" x1="29.3434" y1="24.2857" x2="35.7754" y2="24.2857" gradientUnits="userSpaceOnUse">
<stop stop-color="#00B4E6"/>
<stop offset="1" stop-color="#088CCB"/>
</linearGradient>
</defs>
</svg>
